<?xml version="1.0" encoding="UTF-8"?>
<svg id="Capa_1" xmlns="http://www.w3.org/2000/svg" version="1.1" viewBox="0 0 475.76 255.53">
  <!-- Generator: Adobe Illustrator 29.4.0, SVG Export Plug-In . SVG Version: 2.1.0 Build 152)  -->
  <defs>
    <style>
      .st0 {
        fill: #3f3f3f;
      }

      .st1 {
        fill: #fff;
      }

      .st2 {
        fill: none;
        stroke: #ecebe6;
        stroke-width: 2px;
      }
    </style>
  </defs>
  <g>
    <g>
      <path class="st1" d="M43.52,160.73c2.39,0,4.16.44,5.3,1.33,1.14.89,1.71,2.24,1.71,4.06,0,.96-.17,1.77-.52,2.42-.35.65-.81,1.19-1.37,1.61-.57.42-1.16.74-1.77.97l5.24,8.3h-3.25l-4.5-7.57h-3.25v7.57h-2.83v-18.69h5.24ZM43.34,163.14h-2.23v6.36h2.36c1.45,0,2.5-.27,3.17-.82s1-1.37,1-2.45-.35-1.91-1.05-2.38-1.78-.71-3.25-.71Z"/>
      <path class="st1" d="M66.03,179.42h-10.52v-18.69h10.52v2.41h-7.7v5.34h7.23v2.38h-7.23v6.13h7.7v2.43Z"/>
      <path class="st1" d="M81.48,174.37c0,1.66-.6,2.96-1.81,3.9s-2.85,1.41-4.95,1.41c-1.03,0-1.99-.08-2.88-.25-.89-.17-1.65-.41-2.28-.72v-2.67c.7.31,1.52.6,2.46.85.94.25,1.9.38,2.88.38,1.26,0,2.2-.24,2.83-.73.63-.49.94-1.14.94-1.96,0-.58-.14-1.06-.42-1.45s-.73-.76-1.35-1.1c-.62-.34-1.43-.7-2.42-1.09-.91-.35-1.72-.76-2.44-1.23s-1.27-1.06-1.67-1.75c-.4-.7-.6-1.55-.6-2.57,0-1.54.56-2.74,1.68-3.61,1.12-.87,2.58-1.31,4.4-1.31,1.01,0,1.95.1,2.81.31.86.21,1.69.48,2.47.81l-.89,2.33c-.72-.3-1.45-.54-2.19-.73-.74-.19-1.51-.29-2.29-.29-1.03,0-1.82.23-2.36.68-.54.45-.81,1.05-.81,1.78,0,.58.13,1.06.39,1.45.26.39.68.75,1.26,1.07.58.32,1.34.67,2.28,1.03,1.05.42,1.94.86,2.68,1.32.74.46,1.3,1.02,1.69,1.68.38.65.58,1.47.58,2.45Z"/>
      <path class="st1" d="M96.33,179.42h-10.52v-18.69h10.52v2.41h-7.7v5.34h7.23v2.38h-7.23v6.13h7.7v2.43Z"/>
      <path class="st1" d="M106.27,160.73c2.39,0,4.16.44,5.3,1.33,1.14.89,1.71,2.24,1.71,4.06,0,.96-.17,1.77-.52,2.42-.35.65-.81,1.19-1.37,1.61-.57.42-1.16.74-1.77.97l5.24,8.3h-3.25l-4.5-7.57h-3.25v7.57h-2.83v-18.69h5.24ZM106.09,163.14h-2.23v6.36h2.36c1.45,0,2.5-.27,3.17-.82s1-1.37,1-2.45-.35-1.91-1.05-2.38-1.78-.71-3.25-.71Z"/>
      <path class="st1" d="M131.88,160.73l-6.6,18.69h-2.93l-6.57-18.69h2.91l4.01,11.73c.23.63.44,1.32.65,2.07.21.75.37,1.43.47,2.04.11-.61.26-1.29.47-2.04.21-.75.43-1.45.65-2.09l4.01-11.7h2.93Z"/>
      <path class="st1" d="M145.62,179.42l-1.99-5.39h-7.23l-1.99,5.39h-2.93l7.09-18.77h2.93l7.07,18.77h-2.96ZM142.85,171.57l-1.88-5.26c-.07-.19-.17-.48-.29-.86-.12-.38-.24-.79-.37-1.2-.12-.42-.22-.76-.29-1.02-.14.54-.3,1.12-.47,1.73-.17.61-.31,1.06-.42,1.36l-1.88,5.26h5.6Z"/>
      <path class="st1" d="M162.48,174.37c0,1.66-.6,2.96-1.81,3.9s-2.85,1.41-4.95,1.41c-1.03,0-1.99-.08-2.88-.25-.89-.17-1.65-.41-2.28-.72v-2.67c.7.31,1.52.6,2.46.85.94.25,1.9.38,2.88.38,1.26,0,2.2-.24,2.83-.73.63-.49.94-1.14.94-1.96,0-.58-.14-1.06-.42-1.45s-.73-.76-1.35-1.1c-.62-.34-1.43-.7-2.42-1.09-.91-.35-1.72-.76-2.44-1.23s-1.27-1.06-1.67-1.75c-.4-.7-.6-1.55-.6-2.57,0-1.54.56-2.74,1.68-3.61,1.12-.87,2.58-1.31,4.4-1.31,1.01,0,1.95.1,2.81.31.86.21,1.69.48,2.47.81l-.89,2.33c-.72-.3-1.45-.54-2.19-.73-.74-.19-1.51-.29-2.29-.29-1.03,0-1.82.23-2.36.68-.54.45-.81,1.05-.81,1.78,0,.58.13,1.06.39,1.45.26.39.68.75,1.26,1.07.58.32,1.34.67,2.28,1.03,1.05.42,1.94.86,2.68,1.32.74.46,1.3,1.02,1.69,1.68.38.65.58,1.47.58,2.45Z"/>
      <path class="st1" d="M185.91,179.42l-1.99-5.39h-7.23l-1.99,5.39h-2.93l7.09-18.77h2.93l7.07,18.77h-2.96ZM183.14,171.57l-1.88-5.26c-.07-.19-.17-.48-.29-.86-.12-.38-.24-.79-.37-1.2-.12-.42-.22-.76-.29-1.02-.14.54-.3,1.12-.47,1.73-.17.61-.31,1.06-.42,1.36l-1.88,5.26h5.6Z"/>
      <path class="st1" d="M192.04,179.42v-18.69h2.83v16.26h7.99v2.43h-10.81Z"/>
      <path class="st1" d="M226.18,175.29h-2.59v4.14h-2.7v-4.14h-8.67v-2.2l8.61-12.44h2.75v12.28h2.59v2.36ZM220.89,172.93v-5.08c0-.82.01-1.59.04-2.32s.06-1.33.09-1.82h-.1c-.14.35-.31.71-.52,1.07-.21.37-.41.69-.6.97l-4.95,7.17h6.05Z"/>
      <path class="st1" d="M230.71,179.42l7.46-16.23h-9.82v-2.46h12.8v1.99l-7.44,16.7h-3.01Z"/>
      <path class="st1" d="M256.71,168.71c0,1.06-.07,2.12-.22,3.18s-.41,2.05-.79,2.98c-.38.93-.89,1.76-1.56,2.49-.66.72-1.51,1.29-2.54,1.7-1.03.41-2.27.62-3.72.62-.35,0-.76-.02-1.24-.05-.48-.04-.87-.1-1.17-.18v-2.33c.33.1.7.18,1.11.24s.81.08,1.19.08c1.2,0,2.2-.18,2.98-.54.79-.36,1.41-.86,1.86-1.51.45-.65.79-1.39.99-2.24.21-.85.33-1.76.37-2.74h-.16c-.38.59-.92,1.1-1.6,1.53-.68.43-1.6.64-2.75.64-1.61,0-2.9-.5-3.87-1.51-.98-1-1.47-2.41-1.47-4.23,0-1.97.55-3.53,1.65-4.66,1.1-1.13,2.57-1.7,4.42-1.7,1.2,0,2.3.3,3.29.89.99.59,1.77,1.5,2.34,2.71.58,1.21.86,2.75.86,4.62ZM250.24,162.77c-1,0-1.81.33-2.43.99-.63.66-.94,1.68-.94,3.04,0,1.12.27,2,.81,2.64.54.65,1.36.97,2.46.97.77,0,1.44-.16,2-.47.57-.31,1-.72,1.31-1.2s.46-1,.46-1.52c0-.7-.13-1.39-.41-2.07-.27-.68-.68-1.25-1.23-1.7-.55-.45-1.23-.68-2.03-.68Z"/>
      <path class="st1" d="M271.63,165.05c0,1.27-.36,2.29-1.07,3.04-.72.75-1.66,1.25-2.83,1.49v.1c1.48.17,2.6.65,3.35,1.41.75.77,1.13,1.76,1.13,2.98,0,1.08-.26,2.05-.77,2.89-.52.85-1.31,1.51-2.38,1.99-1.07.48-2.45.72-4.12.72-1,0-1.92-.08-2.78-.24-.86-.16-1.67-.42-2.43-.79v-2.51c.79.4,1.63.71,2.54.92s1.76.31,2.57.31c1.61,0,2.75-.3,3.44-.9s1.03-1.44,1.03-2.53-.42-1.81-1.26-2.3c-.84-.49-2.09-.73-3.77-.73h-1.7v-2.28h1.73c1.59,0,2.74-.3,3.46-.89.72-.59,1.07-1.37,1.07-2.33,0-.84-.27-1.49-.82-1.95s-1.34-.69-2.37-.69c-.96,0-1.79.15-2.5.46-.71.31-1.37.66-1.98,1.06l-1.36-1.91c.7-.52,1.54-.97,2.51-1.35.98-.38,2.11-.56,3.4-.56,1.94,0,3.41.42,4.41,1.27,1,.85,1.51,1.95,1.51,3.31Z"/>
      <path class="st1" d="M275.19,173.58v-2.36h6.49v2.36h-6.49Z"/>
      <path class="st1" d="M290.69,167.82c1.85,0,3.34.48,4.48,1.44,1.13.96,1.7,2.33,1.7,4.11,0,1.97-.62,3.52-1.86,4.63-1.24,1.12-2.99,1.68-5.26,1.68-.98,0-1.89-.09-2.74-.26s-1.57-.43-2.16-.76v-2.54c.63.37,1.39.66,2.29.89.9.23,1.76.34,2.58.34,1.31,0,2.36-.3,3.14-.9.79-.6,1.18-1.54,1.18-2.81,0-1.13-.35-2-1.06-2.6-.71-.6-1.82-.9-3.34-.9-.49,0-1.03.04-1.64.13-.6.09-1.09.17-1.45.26l-1.28-.76.71-9.03h9.61v2.46h-7.2l-.42,4.9c.3-.05.67-.11,1.13-.17.45-.06.99-.09,1.6-.09Z"/>
      <path class="st1" d="M308.67,179.42h-2.75v-12.41c0-.66,0-1.26.03-1.79.02-.53.04-1.05.08-1.56-.23.24-.46.47-.71.68-.24.21-.52.44-.84.71l-2.04,1.65-1.41-1.78,5.34-4.19h2.3v18.69Z"/>
      <path class="st1" d="M315.85,171.46c0-1.08.07-2.15.22-3.19.15-1.05.41-2.04.79-2.97.38-.93.89-1.76,1.56-2.49.66-.72,1.5-1.29,2.53-1.7,1.02-.41,2.26-.62,3.71-.62.37,0,.78.01,1.24.04.46.03.84.08,1.14.17v2.33c-.33-.1-.69-.18-1.09-.24-.39-.05-.78-.08-1.17-.08-1.21,0-2.2.18-2.99.55-.79.37-1.41.87-1.86,1.52-.45.65-.79,1.4-1,2.25-.21.85-.34,1.77-.39,2.75h.16c.38-.61.92-1.13,1.62-1.56.7-.43,1.6-.64,2.7-.64,1.62,0,2.93.5,3.91,1.51.99,1,1.48,2.42,1.48,4.25,0,1.95-.55,3.5-1.64,4.63-1.09,1.13-2.57,1.7-4.44,1.7-1.2,0-2.3-.3-3.29-.89-.99-.59-1.77-1.5-2.34-2.71-.58-1.21-.86-2.75-.86-4.62ZM322.31,177.38c1,0,1.81-.33,2.44-.98.63-.65.94-1.67.94-3.05,0-1.1-.28-1.97-.83-2.62-.55-.65-1.37-.97-2.47-.97-.75,0-1.41.16-1.96.47s-1,.72-1.31,1.2c-.31.49-.47.99-.47,1.49,0,.7.14,1.39.42,2.08.28.69.69,1.26,1.23,1.7.54.44,1.21.67,2.02.67Z"/>
      <path class="st1" d="M331.48,171.46c0-1.08.07-2.15.22-3.19.15-1.05.41-2.04.79-2.97.38-.93.89-1.76,1.56-2.49.66-.72,1.5-1.29,2.53-1.7,1.02-.41,2.26-.62,3.71-.62.37,0,.78.01,1.24.04.46.03.84.08,1.14.17v2.33c-.33-.1-.69-.18-1.09-.24-.39-.05-.78-.08-1.17-.08-1.21,0-2.2.18-2.99.55-.79.37-1.41.87-1.86,1.52-.45.65-.79,1.4-1,2.25-.21.85-.34,1.77-.39,2.75h.16c.38-.61.92-1.13,1.62-1.56.7-.43,1.6-.64,2.7-.64,1.62,0,2.93.5,3.91,1.51.99,1,1.48,2.42,1.48,4.25,0,1.95-.55,3.5-1.64,4.63-1.09,1.13-2.57,1.7-4.44,1.7-1.2,0-2.3-.3-3.29-.89-.99-.59-1.77-1.5-2.34-2.71-.58-1.21-.86-2.75-.86-4.62ZM337.94,177.38c1,0,1.81-.33,2.44-.98.63-.65.94-1.67.94-3.05,0-1.1-.28-1.97-.83-2.62-.55-.65-1.37-.97-2.47-.97-.75,0-1.41.16-1.96.47s-1,.72-1.31,1.2c-.31.49-.47.99-.47,1.49,0,.7.14,1.39.42,2.08.28.69.69,1.26,1.23,1.7.54.44,1.21.67,2.02.67Z"/>
      <path class="st1" d="M363.13,160.73l-6.96,18.69h-2.64l6.96-18.69h2.64Z"/>
      <path class="st1" d="M384.49,165.05c0,1.27-.36,2.29-1.07,3.04-.72.75-1.66,1.25-2.83,1.49v.1c1.48.17,2.6.65,3.35,1.41.75.77,1.13,1.76,1.13,2.98,0,1.08-.26,2.05-.77,2.89-.52.85-1.31,1.51-2.38,1.99-1.07.48-2.45.72-4.12.72-1,0-1.92-.08-2.78-.24-.86-.16-1.67-.42-2.43-.79v-2.51c.79.4,1.63.71,2.54.92s1.76.31,2.57.31c1.61,0,2.75-.3,3.44-.9s1.03-1.44,1.03-2.53-.42-1.81-1.26-2.3c-.84-.49-2.09-.73-3.77-.73h-1.7v-2.28h1.73c1.59,0,2.74-.3,3.46-.89.72-.59,1.07-1.37,1.07-2.33,0-.84-.27-1.49-.82-1.95s-1.34-.69-2.37-.69c-.96,0-1.79.15-2.5.46-.71.31-1.37.66-1.98,1.06l-1.36-1.91c.7-.52,1.54-.97,2.51-1.35.98-.38,2.11-.56,3.4-.56,1.94,0,3.41.42,4.41,1.27,1,.85,1.51,1.95,1.51,3.31Z"/>
      <path class="st1" d="M388.37,171.46c0-1.08.07-2.15.22-3.19.15-1.05.41-2.04.79-2.97.38-.93.89-1.76,1.56-2.49.66-.72,1.5-1.29,2.53-1.7,1.02-.41,2.26-.62,3.71-.62.37,0,.78.01,1.24.04.46.03.84.08,1.14.17v2.33c-.33-.1-.69-.18-1.09-.24-.39-.05-.78-.08-1.17-.08-1.21,0-2.2.18-2.99.55-.79.37-1.41.87-1.86,1.52-.45.65-.79,1.4-1,2.25-.21.85-.34,1.77-.39,2.75h.16c.38-.61.92-1.13,1.62-1.56.7-.43,1.6-.64,2.7-.64,1.62,0,2.93.5,3.91,1.51.99,1,1.48,2.42,1.48,4.25,0,1.95-.55,3.5-1.64,4.63-1.09,1.13-2.57,1.7-4.44,1.7-1.2,0-2.3-.3-3.29-.89-.99-.59-1.77-1.5-2.34-2.71-.58-1.21-.86-2.75-.86-4.62ZM394.83,177.38c1,0,1.81-.33,2.44-.98.63-.65.94-1.67.94-3.05,0-1.1-.28-1.97-.83-2.62-.55-.65-1.37-.97-2.47-.97-.75,0-1.41.16-1.96.47s-1,.72-1.31,1.2c-.31.49-.47.99-.47,1.49,0,.7.14,1.39.42,2.08.28.69.69,1.26,1.23,1.7.54.44,1.21.67,2.02.67Z"/>
      <path class="st1" d="M416.46,168.71c0,1.06-.07,2.12-.22,3.18s-.41,2.05-.79,2.98c-.38.93-.89,1.76-1.56,2.49-.66.72-1.51,1.29-2.54,1.7-1.03.41-2.27.62-3.72.62-.35,0-.76-.02-1.24-.05-.48-.04-.87-.1-1.17-.18v-2.33c.33.1.7.18,1.11.24s.81.08,1.19.08c1.2,0,2.2-.18,2.98-.54.79-.36,1.41-.86,1.86-1.51.45-.65.79-1.39.99-2.24.21-.85.33-1.76.37-2.74h-.16c-.38.59-.92,1.1-1.6,1.53-.68.43-1.6.64-2.75.64-1.61,0-2.9-.5-3.87-1.51-.98-1-1.47-2.41-1.47-4.23,0-1.97.55-3.53,1.65-4.66,1.1-1.13,2.57-1.7,4.42-1.7,1.2,0,2.3.3,3.29.89.99.59,1.77,1.5,2.34,2.71.58,1.21.86,2.75.86,4.62ZM409.99,162.77c-1,0-1.81.33-2.43.99-.63.66-.94,1.68-.94,3.04,0,1.12.27,2,.81,2.64.54.65,1.36.97,2.46.97.77,0,1.44-.16,2-.47.57-.31,1-.72,1.31-1.2s.46-1,.46-1.52c0-.7-.13-1.39-.41-2.07-.27-.68-.68-1.25-1.23-1.7-.55-.45-1.23-.68-2.03-.68Z"/>
      <path class="st1" d="M432.14,170.05c0,2.02-.21,3.75-.63,5.18-.42,1.43-1.1,2.53-2.03,3.3s-2.16,1.15-3.68,1.15c-2.15,0-3.73-.85-4.75-2.55-1.02-1.7-1.53-4.06-1.53-7.08,0-2.02.21-3.75.62-5.18.41-1.43,1.08-2.53,2-3.29s2.15-1.14,3.67-1.14c2.13,0,3.72.84,4.76,2.53,1.05,1.68,1.57,4.04,1.57,7.08ZM422.3,170.05c0,2.44.26,4.27.79,5.48.52,1.21,1.43,1.82,2.72,1.82s2.18-.6,2.72-1.81c.54-1.2.81-3.04.81-5.5s-.27-4.25-.81-5.46c-.54-1.21-1.45-1.82-2.72-1.82s-2.2.61-2.72,1.82c-.52,1.21-.79,3.03-.79,5.46Z"/>
    </g>
    <g>
      <path class="st1" d="M96.74,198.51c-1.85,0-3.3.64-4.36,1.92-1.06,1.28-1.58,3.04-1.58,5.28s.49,3.96,1.47,5.24,2.46,1.91,4.45,1.91c.8,0,1.58-.07,2.32-.22.74-.15,1.5-.34,2.26-.59v2.43c-.73.28-1.48.48-2.25.62-.77.13-1.66.2-2.67.2-1.92,0-3.51-.4-4.78-1.19-1.27-.79-2.21-1.91-2.83-3.35s-.93-3.13-.93-5.07.34-3.55,1.03-4.99c.69-1.44,1.7-2.57,3.02-3.39,1.33-.82,2.95-1.23,4.87-1.23.94,0,1.86.1,2.76.3.9.2,1.72.48,2.47.85l-1.05,2.36c-.61-.28-1.27-.53-1.96-.75-.7-.22-1.45-.33-2.25-.33Z"/>
      <path class="st1" d="M120.49,196.34v12.1c0,1.29-.27,2.46-.8,3.5-.53,1.04-1.35,1.86-2.45,2.46-1.1.6-2.49.9-4.16.9-2.37,0-4.18-.63-5.41-1.9-1.23-1.27-1.85-2.94-1.85-5.01v-12.04h2.83v11.91c0,3.09,1.52,4.63,4.56,4.63,1.57,0,2.71-.42,3.42-1.26.71-.84,1.06-1.97,1.06-3.4v-11.89h2.8Z"/>
      <path class="st1" d="M131.12,205.08l4.58-8.74h3.04l-6.23,11.44v7.25h-2.8v-7.15l-6.23-11.55h3.06l4.58,8.74Z"/>
      <path class="st1" d="M157.85,205.66c0,1.94-.32,3.63-.97,5.07-.65,1.44-1.62,2.56-2.91,3.36-1.29.8-2.9,1.2-4.82,1.2s-3.6-.4-4.9-1.2c-1.29-.8-2.25-1.93-2.88-3.38-.63-1.45-.94-3.14-.94-5.08s.31-3.6.94-5.04c.63-1.44,1.59-2.56,2.88-3.35,1.29-.79,2.93-1.19,4.92-1.19s3.52.4,4.8,1.19c1.28.79,2.25,1.91,2.89,3.35.65,1.44.97,3.13.97,5.07ZM143.42,205.66c0,2.23.46,4,1.39,5.29.92,1.29,2.37,1.94,4.35,1.94s3.44-.65,4.35-1.94,1.36-3.05,1.36-5.29-.45-3.99-1.36-5.26c-.91-1.27-2.35-1.91-4.32-1.91s-3.45.64-4.37,1.91c-.93,1.27-1.39,3.03-1.39,5.26Z"/>
      <path class="st1" d="M177.27,215.03h-2.75v-12.41c0-.66,0-1.26.03-1.79.02-.53.04-1.05.08-1.56-.23.24-.46.47-.71.68-.24.21-.52.44-.84.71l-2.04,1.65-1.41-1.78,5.34-4.19h2.3v18.69Z"/>
      <path class="st1" d="M196.91,204.32c0,1.06-.07,2.12-.22,3.18s-.41,2.05-.79,2.98c-.38.93-.89,1.76-1.56,2.49-.66.72-1.51,1.29-2.54,1.7-1.03.41-2.27.62-3.72.62-.35,0-.76-.02-1.24-.05-.48-.04-.87-.1-1.17-.18v-2.33c.33.1.7.18,1.11.24s.81.08,1.19.08c1.2,0,2.2-.18,2.98-.54.79-.36,1.41-.86,1.86-1.51.45-.65.79-1.39.99-2.24.21-.85.33-1.76.37-2.74h-.16c-.38.59-.92,1.1-1.6,1.53-.68.43-1.6.64-2.75.64-1.61,0-2.9-.5-3.87-1.51-.98-1-1.47-2.41-1.47-4.23,0-1.97.55-3.53,1.65-4.66,1.1-1.13,2.57-1.7,4.42-1.7,1.2,0,2.3.3,3.29.89.99.59,1.77,1.5,2.34,2.71.58,1.21.86,2.75.86,4.62ZM190.44,198.38c-1,0-1.81.33-2.43.99-.63.66-.94,1.68-.94,3.04,0,1.12.27,2,.81,2.64.54.65,1.36.97,2.46.97.77,0,1.44-.16,2-.47.57-.31,1-.72,1.31-1.2s.46-1,.46-1.52c0-.7-.13-1.39-.41-2.07-.27-.68-.68-1.25-1.23-1.7-.55-.45-1.23-.68-2.03-.68Z"/>
      <path class="st1" d="M212.56,215.03h-12.57v-2.15l4.82-4.9c.94-.96,1.73-1.79,2.36-2.5.63-.71,1.1-1.39,1.41-2.04.31-.65.47-1.37.47-2.13,0-.94-.27-1.66-.82-2.15-.55-.49-1.28-.73-2.19-.73-.86,0-1.62.16-2.3.47-.68.31-1.39.77-2.12,1.36l-1.49-1.86c.75-.63,1.61-1.17,2.57-1.64.96-.46,2.1-.69,3.43-.69,1.76,0,3.16.45,4.19,1.36,1.03.91,1.54,2.12,1.54,3.64,0,1-.2,1.92-.6,2.78-.4.86-.97,1.7-1.7,2.54-.73.84-1.6,1.73-2.59,2.67l-3.48,3.38v.13h9.08v2.46Z"/>
      <path class="st1" d="M221.81,203.43c1.85,0,3.34.48,4.48,1.44,1.13.96,1.7,2.33,1.7,4.11,0,1.97-.62,3.52-1.86,4.63-1.24,1.12-2.99,1.68-5.26,1.68-.98,0-1.89-.09-2.74-.26s-1.57-.43-2.16-.76v-2.54c.63.37,1.39.66,2.29.89.9.23,1.76.34,2.58.34,1.31,0,2.36-.3,3.14-.9.79-.6,1.18-1.54,1.18-2.81,0-1.13-.35-2-1.06-2.6-.71-.6-1.82-.9-3.34-.9-.49,0-1.03.04-1.64.13-.6.09-1.09.17-1.45.26l-1.28-.76.71-9.03h9.61v2.46h-7.2l-.42,4.9c.3-.05.67-.11,1.13-.17.45-.06.99-.09,1.6-.09Z"/>
      <path class="st1" d="M238.48,209.19v-2.36h6.49v2.36h-6.49Z"/>
      <path class="st1" d="M264.69,215.03l-5.66-15.89h-.11c.04.37.07.84.09,1.43.03.58.05,1.22.07,1.91.02.69.03,1.36.03,2v10.55h-2.57v-18.69h4.03l5.37,15h.11l5.52-15h4.03v18.69h-2.75v-10.71c0-.61.01-1.24.04-1.88s.05-1.26.08-1.83c.03-.58.05-1.06.07-1.44h-.11l-5.81,15.87h-2.43Z"/>
      <path class="st1" d="M292.89,215.03l-1.99-5.39h-7.23l-1.99,5.39h-2.93l7.09-18.77h2.93l7.07,18.77h-2.96ZM290.11,207.18l-1.88-5.26c-.07-.19-.17-.48-.29-.86-.12-.38-.24-.79-.37-1.2-.12-.42-.22-.76-.29-1.02-.14.54-.3,1.12-.47,1.73-.17.61-.31,1.06-.42,1.36l-1.88,5.26h5.6Z"/>
      <path class="st1" d="M304.25,196.34c2.39,0,4.16.44,5.3,1.33,1.14.89,1.71,2.24,1.71,4.06,0,.96-.17,1.77-.52,2.42-.35.65-.81,1.19-1.37,1.61-.57.42-1.16.74-1.77.97l5.24,8.3h-3.25l-4.5-7.57h-3.25v7.57h-2.83v-18.69h5.24ZM304.06,198.75h-2.23v6.36h2.36c1.45,0,2.5-.27,3.17-.82s1-1.37,1-2.45-.35-1.91-1.05-2.38-1.78-.71-3.25-.71Z"/>
      <path class="st1" d="M322.52,215.03h-2.83v-16.26h-5.6v-2.43h14.03v2.43h-5.6v16.26Z"/>
      <path class="st1" d="M337.39,215.03h-7.25v-1.62l2.23-.65v-14.11l-2.23-.68v-1.62h7.25v1.62l-2.2.68v14.11l2.2.65v1.62ZM337.89,190.39v.26c-.26.31-.63.72-1.11,1.22-.48.5-.99.99-1.52,1.49s-1.01.9-1.43,1.22h-1.83v-.31c.26-.31.56-.7.89-1.17.33-.46.65-.93.96-1.41.31-.48.57-.91.8-1.3h3.25Z"/>
      <path class="st1" d="M356.9,215.03h-3.43l-9.45-15.11h-.1c.03.7.07,1.5.12,2.4.04.9.07,1.82.09,2.76v9.95h-2.57v-18.69h3.4l9.42,15.03h.08c-.02-.37-.04-.83-.07-1.39s-.05-1.16-.07-1.79c-.02-.64-.04-1.23-.05-1.79v-10.05h2.62v18.69Z"/>
      <path class="st1" d="M373.05,215.03h-10.52v-18.69h10.52v2.41h-7.7v5.34h7.23v2.38h-7.23v6.13h7.7v2.43Z"/>
      <path class="st1" d="M389.39,215.03h-13.22v-2.02l9.58-14.24h-9.29v-2.43h12.7v2.02l-9.58,14.24h9.82v2.43Z"/>
    </g>
  </g>
  <g>
    <g>
      <path class="st1" d="M128.99,72.56h-8.84l-1.51-10.11h-10.75l-1.51,10.11h-8.04l8.92-55.75h12.82l8.92,55.75ZM109,54.88h8.44l-4.22-28.19-4.22,28.19Z"/>
      <path class="st1" d="M151.37,72.56c-.48-1.43-.8-2.31-.8-6.85v-8.76c0-5.18-1.75-7.09-5.73-7.09h-3.03v22.7h-8.76V16.81h13.22c9.08,0,12.98,4.22,12.98,12.82v4.38c0,5.73-1.83,9.48-5.73,11.31,4.38,1.83,5.81,6.05,5.81,11.87v8.6c0,2.71.08,4.7.96,6.77h-8.92ZM141.81,24.77v17.12h3.42c3.26,0,5.26-1.43,5.26-5.89v-5.49c0-3.98-1.35-5.73-4.46-5.73h-4.22Z"/>
      <path class="st1" d="M173.82,40.3h12.03v7.96h-12.03v16.33h15.13v7.96h-23.89V16.81h23.89v7.96h-15.13v15.53Z"/>
      <path class="st1" d="M222.72,72.56h-8.84l-1.51-10.11h-10.75l-1.51,10.11h-8.04l8.92-55.75h12.82l8.92,55.75ZM202.73,54.88h8.44l-4.22-28.19-4.22,28.19Z"/>
      <path class="st1" d="M264.53,51.77v7.41c0,8.92-4.46,14.02-13.06,14.02s-13.06-5.1-13.06-14.02v-28.99c0-8.92,4.46-14.02,13.06-14.02s13.06,5.1,13.06,14.02v5.42h-8.28v-5.97c0-3.98-1.75-5.49-4.54-5.49s-4.54,1.51-4.54,5.49v30.1c0,3.98,1.75,5.42,4.54,5.42s4.54-1.43,4.54-5.42v-7.96h8.28Z"/>
      <path class="st1" d="M278.62,72.56h-8.76V16.81h8.76v23.89h9.95v-23.89h8.92v55.75h-8.92v-23.89h-9.95v23.89Z"/>
      <path class="st1" d="M303.86,16.81h8.76v55.75h-8.76V16.81Z"/>
      <path class="st1" d="M344.39,51.77v7.41c0,8.92-4.46,14.02-13.06,14.02s-13.06-5.1-13.06-14.02v-28.99c0-8.92,4.46-14.02,13.06-14.02s13.06,5.1,13.06,14.02v5.42h-8.28v-5.97c0-3.98-1.75-5.49-4.54-5.49s-4.54,1.51-4.54,5.49v30.1c0,3.98,1.75,5.42,4.54,5.42s4.54-1.43,4.54-5.42v-7.96h8.28Z"/>
      <path class="st1" d="M378.08,72.56h-8.84l-1.51-10.11h-10.75l-1.51,10.11h-8.04l8.92-55.75h12.82l8.92,55.75ZM358.09,54.88h8.44l-4.22-28.19-4.22,28.19Z"/>
    </g>
    <polygon class="st1" points="381.22 112.94 398.61 132.81 341.24 132.81 341.24 93.93 398.61 93.93 381.22 112.94"/>
    <polygon class="st1" points="95.19 112.33 77.79 132.18 135.17 132.18 135.17 93.31 77.79 93.31 95.19 112.33"/>
    <polygon class="st0" points="135.17 132.18 135.17 121.67 121.61 121.67 135.17 132.18"/>
    <rect class="st1" x="121.61" y="83.44" width="233.25" height="38.88"/>
    <g>
      <path d="M176.82,115.47c-.22-.66-.37-1.07-.37-3.16v-4.04c0-2.39-.81-3.27-2.65-3.27h-1.4v10.48h-4.04v-25.73h6.1c4.19,0,5.99,1.95,5.99,5.92v2.02c0,2.65-.84,4.37-2.65,5.22,2.02.85,2.68,2.79,2.68,5.48v3.97c0,1.25.04,2.17.44,3.12h-4.12ZM172.41,93.42v7.9h1.58c1.51,0,2.43-.66,2.43-2.72v-2.54c0-1.84-.62-2.65-2.06-2.65h-1.95Z"/>
      <path d="M186.85,100.59h5.55v3.68h-5.55v7.54h6.98v3.68h-11.03v-25.73h11.03v3.68h-6.98v7.17Z"/>
      <path d="M201.45,89.45c3.93,0,5.96,2.35,5.96,6.47v.81h-3.82v-1.07c0-1.84-.74-2.54-2.02-2.54s-2.02.7-2.02,2.54c0,5.29,7.9,6.29,7.9,13.64,0,4.12-2.06,6.47-6.03,6.47s-6.03-2.35-6.03-6.47v-1.58h3.82v1.84c0,1.84.81,2.5,2.1,2.5s2.09-.66,2.09-2.5c0-5.29-7.9-6.29-7.9-13.64,0-4.12,2.02-6.47,5.95-6.47Z"/>
      <path d="M208.25,89.74h12.5v3.68h-4.23v22.06h-4.04v-22.06h-4.23v-3.68Z"/>
      <path d="M221.85,95.92c0-4.12,2.17-6.47,6.14-6.47s6.14,2.35,6.14,6.47v13.38c0,4.12-2.17,6.47-6.14,6.47s-6.14-2.35-6.14-6.47v-13.38ZM225.89,109.56c0,1.84.81,2.54,2.1,2.54s2.09-.7,2.09-2.54v-13.9c0-1.84-.81-2.54-2.09-2.54s-2.1.7-2.1,2.54v13.9Z"/>
      <path d="M241.59,100.77h7.35v3.68h-7.35v-3.68Z"/>
      <path d="M268.83,95.66v.92c0,2.65-.81,4.34-2.61,5.18,2.17.85,3.01,2.79,3.01,5.51v2.1c0,3.97-2.09,6.1-6.14,6.1h-6.36v-25.73h6.1c4.19,0,5.99,1.95,5.99,5.92ZM260.78,93.42v6.8h1.58c1.51,0,2.43-.66,2.43-2.72v-1.43c0-1.84-.62-2.65-2.06-2.65h-1.95ZM260.78,103.9v7.9h2.32c1.36,0,2.1-.62,2.1-2.54v-2.24c0-2.39-.77-3.12-2.61-3.12h-1.8Z"/>
      <path d="M284.41,115.47h-4.08l-.7-4.67h-4.96l-.7,4.67h-3.71l4.12-25.73h5.92l4.12,25.73ZM275.19,107.31h3.9l-1.95-13.01-1.95,13.01Z"/>
      <path d="M294.41,115.47c-.22-.66-.37-1.07-.37-3.16v-4.04c0-2.39-.81-3.27-2.65-3.27h-1.4v10.48h-4.04v-25.73h6.1c4.19,0,5.99,1.95,5.99,5.92v2.02c0,2.65-.84,4.37-2.65,5.22,2.02.85,2.68,2.79,2.68,5.48v3.97c0,1.25.04,2.17.44,3.12h-4.12ZM290,93.42v7.9h1.58c1.51,0,2.43-.66,2.43-2.72v-2.54c0-1.84-.62-2.65-2.06-2.65h-1.95Z"/>
    </g>
    <polygon class="st0" points="340.87 132.92 340.87 122.4 354.43 122.4 340.87 132.92"/>
  </g>
  <polyline class="st2" points="412.81 112.53 469.65 112.53 469.65 247.34 7.53 247.34 7.53 112.97 65.66 112.89"/>
</svg>