<?xml version="1.0" encoding="UTF-8"?><svg id="Capa_2" xmlns="http://www.w3.org/2000/svg" width="80.25" height="33.58" viewBox="0 0 80.25 33.58"><defs><style>.cls-1{fill:#fefbfb;}</style></defs><g id="Capa_1-2"><path class="cls-1" d="M19.6,20.94c-.02-1.55.3-3.05.77-4.51.52-1.63,1.18-3.19,2.12-4.63,1-1.53,2.29-2.73,3.95-3.52.87-.41,1.78-.6,2.75-.53,1.25.08,2.23.88,2.54,2.09.02.08,0,.2.1.22.1.01.12-.11.15-.18.32-.58.75-1.06,1.41-1.24,1.03-.28,2.01-.19,2.88.47.38.29.65.65.63,1.16,0,.17-.05.34-.12.49-.61,1.41-1.25,2.81-1.82,4.24-.51,1.28-1.02,2.56-1.34,3.91-.12.51-.22,1.03-.21,1.56,0,.15,0,.3.07.44.04.13.13.19.27.17.22-.02.39-.13.56-.26,1.08-.85,1.92-1.87,2.37-3.18.81-2.35,1.68-4.69,2.68-6.97.11-.25.23-.49.33-.74.33-.82.94-1.28,1.81-1.41.94-.14,1.79.08,2.52.69.11.09.21.2.29.32.07.12.13.1.22.02.56-.51,1.15-.96,1.83-1.31.86-.44,1.77-.62,2.73-.49,1.3.18,2.11.97,2.59,2.16.31.79.4,1.62.39,2.46,0,1.5-.35,2.95-.82,4.36-.67,2-1.58,3.88-2.87,5.57-.03.04-.1.09-.05.15.05.07.11,0,.15-.03,1.11-.64,2.12-1.39,2.84-2.48.36-.53.63-1.11.84-1.72.86-2.55,1.79-5.08,2.88-7.55.12-.26.24-.52.35-.79.33-.79.92-1.24,1.76-1.37.95-.15,1.8.06,2.54.67.12.1.22.2.3.33.07.12.13.11.22.02.43-.4.89-.74,1.38-1.06.95-.61,1.99-.87,3.11-.75,1.19.13,2.01.81,2.52,1.87.33.68.47,1.41.51,2.16.08,1.53-.2,3.01-.65,4.47-.68,2.18-1.63,4.23-3.03,6.05-.03.04-.1.09-.05.15.05.07.11,0,.15-.03,1.08-.64,2.09-1.36,2.85-2.38.57-.77.91-1.64,1.18-2.55.75-2.55,1.73-5.01,2.97-7.36.09-.16.18-.32.28-.48.39-.64.96-1.01,1.7-1.12.82-.12,1.59-.02,2.3.44.18.12.34.26.48.42.34.41.42.86.21,1.36-.49,1.15-1.02,2.28-1.49,3.44-.56,1.38-1.14,2.77-1.54,4.21-.19.69-.36,1.39-.33,2.12,0,.1.01.2.04.3.05.23.17.3.4.24s.42-.2.6-.35c.52-.43.99-.91,1.43-1.42.51-.58.95-1.22,1.4-1.84.34-.47.97-.56,1.43-.2.34.27.43.67.2,1.03-1.2,1.87-2.46,3.69-4.07,5.24-.77.74-1.58,1.45-2.54,1.95-.62.33-1.28.52-1.99.53-1.27.01-2.06-.6-2.37-1.83-.1-.41-.14-.82-.14-1.24,0-.08.01-.17-.08-.21-.09-.05-.15.03-.21.08-1.5,1.19-3.17,2.1-4.99,2.7-1.24.41-2.52.54-3.82.51-.42-.01-.83-.02-1.24-.13-.61-.16-1.09-.5-1.42-1.04-.02-.03-.03-.05-.05-.08-.04-.06-.07-.12-.16-.11s-.1.08-.12.15c-.16.54-.32,1.07-.47,1.61-.48,1.69-.97,3.38-1.37,5.09-.07.31-.13.61-.18.92-.13.77-.6,1.17-1.42,1.19-.91.02-1.68-.34-2.32-.97-.7-.68-.89-1.51-.68-2.45.44-1.96,1-3.89,1.57-5.81.06-.21.12-.42.19-.63.02-.08.06-.16-.02-.22-.08-.07-.15,0-.22.04-1.03.69-2.12,1.25-3.27,1.69-1.45.56-2.95.78-4.49.74-.42-.01-.83-.02-1.24-.13-.61-.16-1.08-.51-1.42-1.04-.02-.03-.03-.05-.05-.08-.03-.06-.07-.11-.15-.1-.09,0-.11.08-.13.14-.15.5-.29.99-.44,1.49-.49,1.73-.99,3.45-1.4,5.19-.07.31-.13.61-.19.92-.13.79-.6,1.2-1.44,1.21-.91,0-1.68-.35-2.32-.98-.7-.69-.88-1.51-.67-2.45.45-2.03,1.04-4.03,1.63-6.02,0-.04.02-.08.04-.12.02-.06,0-.11-.06-.15-.05-.03-.1-.02-.15.02-.09.07-.17.15-.25.22-.64.55-1.29,1.09-2.06,1.45-.69.32-1.42.49-2.19.41-.96-.1-1.56-.63-1.88-1.52-.02-.05-.03-.1-.05-.15-.11-.29-.42-.37-.64-.15-.27.27-.55.52-.86.74-.83.59-1.73.99-2.76,1.08-1.52.14-2.78-.53-3.5-1.88-.41-.77-.58-1.61-.63-2.47-.02-.23,0-.47,0-.7l.03.04ZM62.71,11.98c0-.25,0-.52-.11-.77-.08-.2-.17-.24-.37-.15-.15.06-.28.16-.4.26-.54.44-.97.98-1.36,1.54-1.55,2.24-2.58,4.7-3.21,7.35-.14.6-.25,1.21-.22,1.83,0,.2.03.4.12.59.08.17.16.2.33.13.12-.04.22-.11.32-.19.47-.36.86-.8,1.2-1.28,1.52-2.15,2.63-4.48,3.31-7.03.2-.75.38-1.5.4-2.29h0ZM41.34,21.8c0,.25,0,.49.08.73.09.28.2.33.46.19.16-.08.3-.2.44-.32.42-.37.78-.8,1.1-1.26,1.61-2.34,2.76-4.89,3.39-7.66.13-.58.23-1.16.2-1.76,0-.2-.04-.39-.13-.57-.06-.12-.15-.17-.29-.12-.16.06-.3.16-.43.26-.48.38-.87.85-1.23,1.34-1.51,2.09-2.52,4.41-3.2,6.88-.2.75-.38,1.5-.4,2.28h.01ZM24.88,21.27v.4c.02.27.04.53.16.78.08.17.17.19.34.12.19-.08.34-.21.49-.35.45-.42.83-.9,1.15-1.43,1.28-2.12,2.22-4.37,2.72-6.8.14-.7.25-1.4.22-2.11,0-.3-.04-.6-.18-.87-.1-.2-.18-.22-.38-.13-.14.06-.25.15-.37.25-.44.38-.8.85-1.11,1.34-1.06,1.67-1.85,3.46-2.43,5.35-.35,1.13-.59,2.28-.61,3.46h0Z"/><path class="cls-1" d="M13.18.77c1.58.02,3.45.3,5.23,1.06,1.25.54,2.35,1.29,3.2,2.37.79,1,1.09,2.15,1.04,3.41-.08,1.98-.94,3.61-2.27,5.02-1.25,1.32-2.77,2.25-4.42,2.98-.68.3-1.38.57-2.09.78-.15.04-.19.11-.18.26.07,1.27.21,2.54.5,3.78.36,1.59.92,3.1,1.86,4.45.72,1.04,1.62,1.88,2.8,2.39,1.24.54,2.52.57,3.82.25.76-.19,1.48-.5,2.17-.89.23-.13.47-.17.72-.11.35.09.58.32.66.67.09.37-.03.67-.31.92-.74.63-1.51,1.22-2.33,1.73-1.16.73-2.39,1.3-3.74,1.61-1.86.42-3.66.28-5.37-.62-1.23-.65-2.19-1.59-2.98-2.73-.99-1.44-1.61-3.04-2.02-4.73-.22-.91-.37-1.84-.48-2.77,0-.08-.01-.17-.12-.18-.11-.01-.14.08-.16.16-.42,1.54-.84,3.09-1.17,4.66-.14.65-.53,1.03-1.23,1.11-1.3.14-2.36-.33-3.21-1.3-.43-.49-.55-1.09-.5-1.73.1-1.21.38-2.38.7-3.54,1.25-4.54,2.85-8.95,4.82-13.23.29-.64.8-.97,1.5-1.03.79-.08,1.58-.1,2.38-.03.3.03.6.07.9.14.66.15.96.75.68,1.37-.59,1.31-1.15,2.62-1.66,3.96-.41,1.06-.8,2.13-1.2,3.2-.03.08-.08.16,0,.24.08.07.16.01.24-.02,1.65-.77,3.07-1.83,4.17-3.3.71-.95,1.24-1.99,1.43-3.17.11-.72.13-1.43-.02-2.15-.23-1.11-.91-1.82-1.98-2.18-.83-.28-1.68-.31-2.54-.24-1.74.14-3.18.93-4.47,2.04-1.66,1.43-2.81,3.19-3.37,5.32-.09.36-.14.72-.14,1.09,0,.52-.29.89-.79,1.03-.78.21-1.46,0-2.08-.48C.28,11.64-.05,10.69,0,9.59c.04-.79.34-1.5.69-2.19.92-1.77,2.29-3.12,3.93-4.2,1.42-.93,2.94-1.63,4.6-2.02,1.2-.29,2.41-.41,3.98-.41h-.02Z"/><path class="cls-1" d="M76.98,0c1.82,0,3.27,1.42,3.27,3.2s-1.39,3.13-3.05,3.23c-2.04.12-3.35-1.43-3.46-2.93-.16-2.17,1.64-3.53,3.24-3.49h0Z"/></g></svg>