<?xml version="1.0" encoding="UTF-8"?>
<svg id="Capa_1" xmlns="http://www.w3.org/2000/svg" version="1.1" viewBox="0 0 147.3 32.51">
  <!-- Generator: Adobe Illustrator 29.4.0, SVG Export Plug-In . SVG Version: 2.1.0 Build 152)  -->
  <defs>
    <style>
      .st0 {
        fill: #fefcfc;
      }

      .st1 {
        fill: #fdf9f9;
      }

      .st2 {
        fill: #fefbfb;
      }

      .st3 {
        fill: #fdf7f8;
      }

      .st4 {
        fill: #fdfafa;
      }
    </style>
  </defs>
  <path class="st0" d="M12.19.05c3.6,0,7.2-.09,10.8.02,5.86.19,10.76,4.93,11.31,10.58.62,6.42-3.63,11.78-9.39,13.02-1.23.26-2.5.26-3.76.26-2.97-.01-5.94.01-8.91-.02-.65,0-.98.14-1.15.85-.39,1.66-.9,3.3-1.36,4.95-.51,1.81-1.73,2.77-3.58,2.78-1.61.02-3.22-.01-4.82,0-.9.01-1.18-.32-.94-1.22,1.31-5.07,2.6-10.15,3.86-15.23.2-.8.57-1.04,1.38-1.04,5.38.03,10.77.01,16.15.02.78,0,1.54-.03,2.22-.49,1.01-.68,1.53-1.63,1.39-2.85-.14-1.23-1.05-2.22-2.24-2.48-.47-.11-.97-.13-1.45-.13-5.07-.02-10.14-.02-15.21-.03-.92,0-1.81-.16-2.69-.39C1.54,8.09.18,6.48.05,4.18,0,3.17.06,2.15,0,1.14-.05.25.33,0,1.18,0c3.67.03,7.34.01,11.01.01,0,.01,0,.02,0,.03Z"/>
  <path class="st4" d="M75.34,23.17c-.83.58-1.59.97-2.48,1.09-2.06.3-3.94-.79-4.69-2.72-1.46-3.76.7-7.95,4.41-8.56,1.74-.29,3.22.24,4.55,1.65.34-1.64.69-3.09.93-4.55.12-.73.39-.98,1.15-.98,2.32.02,2.32-.02,1.86,2.22-.79,3.9-1.57,7.8-2.33,11.7-.13.69-.38,1.06-1.16.95-.45-.06-.91-.05-1.36,0-.55.05-.93-.08-.89-.8ZM73.32,21.25c1.58-.01,2.92-1.52,2.89-3.25-.03-1.24-.84-2.05-2.04-2.04-1.56.02-2.94,1.56-2.92,3.26.02,1.19.88,2.04,2.07,2.03Z"/>
  <path class="st4" d="M96.2,14.59c.34-1.67.69-3.2.96-4.74.1-.57.33-.73.89-.75,2.53-.09,2.55-.11,2.07,2.34-.76,3.87-1.56,7.73-2.3,11.59-.14.71-.43,1.03-1.18.94-.48-.06-.98,0-1.47-.01-.17,0-.48.02-.5-.05-.4-1.17-.96-.25-1.35-.07-2.67,1.24-5.54-.05-6.28-2.89-.46-1.75-.24-3.46.56-5.09,1.25-2.53,5.35-4.48,8.61-1.28ZM93.24,15.96c-1.55.02-2.94,1.59-2.89,3.27.03,1.2.88,2.03,2.08,2.02,1.59-.02,2.91-1.51,2.86-3.26-.03-1.25-.83-2.04-2.04-2.03Z"/>
  <path class="st4" d="M47.58,9.18c1.08,0,2.17-.1,3.24.02,2.76.29,4.27,1.83,4.38,4.3.11,2.59-1.51,4.66-4.05,5.24-1.49.34-2.99.2-4.49.19-.69,0-.99.2-1.09.9-.14,1.03-.4,2.05-.59,3.08-.12.66-.53.91-1.17.96-2.63.21-2.68.21-2.19-2.35.73-3.87,1.54-7.73,2.28-11.6.13-.67.44-.85,1.06-.82.87.04,1.75.01,2.62.01,0,.02,0,.04,0,.07ZM48.22,15.89c.62-.05,1.26-.03,1.87-.16.95-.19,1.56-1.06,1.5-1.99-.06-.91-.69-1.45-1.79-1.52-.31-.02-.63,0-.94,0q-1.75,0-2.12,1.76t1.49,1.91Z"/>
  <path class="st4" d="M139.86,24.25c-.42-.25-1.32.52-1.49-.64-.04-.26-.34-.02-.51.06-.53.27-1.08.49-1.66.61-2.84.56-5.18-1.37-5.17-4.26.01-3.4,2.57-6.24,5.93-6.61,1.01-.11,1.95.07,2.77.68.3.22.47.34.66-.14.29-.73.98-.36,1.47-.36,2.06-.02,1.78-.2,1.41,1.69-.49,2.5-1,4.99-1.5,7.48-.36,1.79-.14,1.45-1.92,1.49ZM139.42,18.37c0-1.22-.75-1.99-1.93-1.98-1.53,0-2.76,1.4-2.73,3.09.02,1.18.74,1.93,1.86,1.94,1.49.02,2.81-1.41,2.8-3.06Z"/>
  <path class="st2" d="M127.04,15.26c1.23-1.76,2.39-3.36,3.48-5.02.41-.62.85-.93,1.62-.87.73.06,1.47,0,2.2.02.34,0,.79-.15.98.19.2.36-.23.62-.43.88-1.55,2.03-3.01,4.14-4.71,6.03-1.56,1.74-2.21,3.74-2.51,5.95-.05.38-.14.75-.21,1.13-.1.52-.41.79-.95.79-.73,0-1.47,0-2.2,0-.51,0-.69-.2-.56-.72.17-.71.21-1.47.45-2.15.66-1.86.37-3.57-.46-5.33-.89-1.89-1.55-3.89-2.35-5.83-.27-.66-.21-.93.59-.96,2.98-.1,2.98-.13,3.97,2.69.35,1.01.7,2.03,1.1,3.19Z"/>
  <path class="st4" d="M106.39,12.92c3.28,0,5.48,2.1,5.44,5.2-.04,3.57-2.76,6.2-6.41,6.2-3.31,0-5.47-2.07-5.42-5.2.05-3.6,2.74-6.2,6.39-6.2ZM103.47,18.88c-.02,1.37.73,2.14,2.1,2.16,1.6.03,2.76-1.12,2.77-2.75,0-1.34-.79-2.11-2.16-2.12-1.54,0-2.68,1.14-2.71,2.71Z"/>
  <path class="st1" d="M62.29,19.52c-.98,0-1.96-.01-2.93,0-.26,0-.6-.15-.75.18-.14.32.05.62.25.86.62.73,1.47.89,2.37.84.21-.01.45-.01.61-.12,1.48-1,2.15.24,2.98,1.05.38.37.33.62-.13.88-2.32,1.33-4.73,1.55-7.08.25-2.03-1.13-2.48-3.1-2.17-5.25.37-2.6,1.85-4.31,4.38-5.07,1.23-.37,2.48-.36,3.72.02,3.09.95,3.37,3.75,2.82,5.9-.12.46-.46.46-.81.46-1.08,0-2.17,0-3.25,0ZM61.31,17.17c.49,0,.97.02,1.46,0,.29-.02.69.16.82-.23.1-.3-.1-.61-.28-.87-.71-1.03-2.79-1-3.82.06-.21.22-.54.46-.45.77.1.37.52.24.81.26.48.03.97,0,1.46.01Z"/>
  <path class="st1" d="M117.13,12.89c1.1,0,2.13.29,3.16.67.48.18.71.41.41.92-.1.18-.18.38-.24.58-.31.99-.77,1.59-1.91.89-.45-.27-1.02-.22-1.54-.2-.28.01-.6,0-.7.34-.1.34.17.5.42.64.64.35,1.31.66,1.94,1.03,1.57.91,2.1,1.98,1.87,3.74-.17,1.29-1.16,2.24-2.78,2.61-1.92.44-3.73.11-5.45-.85-.46-.26-.61-.54-.31-1,.04-.06.07-.12.11-.18q.88-1.65,2.61-.96c.49.19.99.35,1.52.34.38,0,.84.05.99-.39.16-.48-.31-.64-.62-.82-.55-.31-1.13-.56-1.66-.88-1.64-.97-2.27-2.46-1.77-4.16.41-1.4,1.98-2.31,3.97-2.31Z"/>
  <path class="st4" d="M82.37,23.97c-1.95-.02-1.81.24-1.4-1.71.51-2.42,1.01-4.85,1.45-7.29.13-.7.42-.89,1.1-.89,2.46,0,2.46-.02,1.96,2.41-.4,1.95-.8,3.89-1.2,5.84q-.33,1.64-1.92,1.64Z"/>
  <path class="st3" d="M86.93,10.37c-.02,1.29-1.03,2.27-2.28,2.22-1.01-.04-1.64-.67-1.64-1.65,0-1.3.97-2.28,2.23-2.27,1.06.01,1.71.66,1.69,1.7Z"/>
</svg>