<?xml version="1.0" encoding="UTF-8"?>
<svg id="Capa_1" xmlns="http://www.w3.org/2000/svg" version="1.1" viewBox="0 0 144.76 36.51">
  <!-- Generator: Adobe Illustrator 29.4.0, SVG Export Plug-In . SVG Version: 2.1.0 Build 152)  -->
  <defs>
    <style>
      .st0 {
        fill: #fff;
      }
    </style>
  </defs>
  <path class="st0" d="M22.05.17c12.09-1.17,32.24,3.52,30.88,19.17-1.82,21.01-43.78,22.83-51.52,4.99C-4.65,10.37,10.06,1.32,22.05.17ZM18.11,12.71c-.41-.38,2.79-3.63,3.24-4,6.7-5.43,11.05.53,17.56.63,1.09.02,7.54-1.11,7.55-2.03C35.49-1.22,18.37-.79,7.01,6.87c-.15.8.11.47.43.64,3.23,1.64,8.39,2.62,11.89,1.52-.53,1.1-2.49,1.97-2.5,3.23-.05,1.27,1.73,1.87,2.74,1.94,2.99.22,4.99-3.8,7.98-3.84,1.14-.02,2.72,1.37,3.64,2.07,3.11,2.37,5.86,5.3,8.9,7.77.79,1.47-.71,2.42-2.04,2.03-.9-.26-3.45-3.64-4.84-3.95-.02,2.12,4.62,3.67,3.54,5.86-1.45,2.94-4.53-2.04-6.01-2.47-.32,1.47,4.59,4.39,1.93,5.19-1.8.54-2.85-2.46-4.71-2.41l2.15,2.62c.23,1.07-2.11.85-2.73.41-.01-1.68.06-3.22-1.56-4.14-.4-.23-1.43-.4-1.51-.5-.12-.14-.12-1.06-.4-1.6-.84-1.6-2.24-1.09-3.43-1.5-.66-.23-.92-1.01-1.95-1.15-1.31-.18-1.8-.02-3.38-.3-1.28-.23-2.54.56-2.94.47s-.98-.72-1.52-.94c-1.2-.49-8.69-3.2-9.24-2.63-1.68,11.77,12.41,17.49,22.04,18.18,11.12.8,29.24-4.15,28.2-18.18l-11.48,3.34c-3.05-1.78-9.22-9.19-12.44-9.49-3.64-.34-5.79,5.12-9.67,3.68Z"/>
  <path class="st0" d="M76.97,15.18l-2.33.23-.45-.39v-7.4c0-1.44-3.7-1.44-3.7,0v7.4c-6.21,2.83-.26-8.97-5.09-8.5-3.11.3-1.02,6.54-1.83,8.67l-2.63.29V7.01c0-1.17,1.92-2.77,3.01-3.15,3.01-1.06,4.69,1.2,5.12,1.13.49-.09,1.53-1.54,3.4-1.49,1.63.04,4.5,1.77,4.5,3.52v8.17Z"/>
  <path class="st0" d="M92.89,34.18c-2.48,2.64-8.23,1.52-9.13-2.21.8-.18,2.14-.3,2.92-.15.89.17,1.27,1.32,2.64,1.1,1.45-.24,1.6-1.36,2.13-2.49-.53-.71-.43-.27-.76-.16-1.4.45-1.92.91-3.63.56-3.7-.77-4.22-6.86-2.64-9.59,1.79-3.1,7.62-2.98,9.26.2.79,1.53.76,7.71.56,9.62-.11,1-.65,2.39-1.34,3.13ZM88.3,21.71c-2.43.5-2.79,7.47,1.15,6.72,2.63-.5,2.63-7.5-1.15-6.72Z"/>
  <path class="st0" d="M131.22.08v11.87c0,.19-.71,1.6-.92,1.86-1.87,2.38-7.39,2.41-9.09-.18-3.22-4.92,1.24-13.31,6.92-8.61-.17-2.55-.21-5.2,3.09-4.93ZM125.28,6.3c-2.81.57-2.69,7.46,1.15,6.72,2.64-.5,2.47-7.46-1.15-6.72Z"/>
  <path class="st0" d="M60.95,22.42c.85-4.21,9.3-4.69,10.58.21,1.37,5.29-2.01,10.83-7.49,7.34-.51,2.56.82,5.15-3.09,4.62v-12.17ZM65.8,21.71c-2.67.54-2.65,7.07.82,6.73,3.16-.32,2.77-7.45-.82-6.73Z"/>
  <path class="st0" d="M89.3,10.56h-8.01c-.09,1.08.71,2.16,1.76,2.4,2.04.46,3.62-1.55,5.94-.86-1.14,5.17-10.03,4.41-10.76-.8-1.42-10.21,12.05-10.19,11.07-.74ZM86.22,8.4c-.47-3.01-4.46-3-4.93,0h4.93Z"/>
  <path class="st0" d="M107.19,25.05c0,3.33-2.7,6.03-6.03,6.03s-6.03-2.7-6.03-6.03,2.7-6.03,6.03-6.03,6.03,2.7,6.03,6.03ZM100.31,21.72c-2.69.61-2.75,7.66,1.72,6.65,2.64-.59,2.59-7.63-1.72-6.65Z"/>
  <path class="st0" d="M116.39,7.75l-.26-1.37c-1.57-.38-3.24-.68-3.45,1.37l-2.56-.24c-1.11-4.61,7.45-5.12,9-1.97.55,1.13.55,5.32.31,6.64-.82,4.51-10.97,5-10.03-.77.55-3.38,4.62-2.64,6.99-3.65ZM116.42,9.94c-1.74.47-4.89.38-3.73,2.95,2.18,1.4,4.18-.63,3.73-2.95Z"/>
  <path class="st0" d="M73.37,30.19c-1.04-.96-1.1-3.2-.42-4.39,1.44-2.5,6.31-1.38,6.5-3.07.14-1.27-1.06-1.15-2.02-1.08-1.97.15-1.18,1.25-1.88,1.51l-2.59.04c-.84-4.74,8.04-5.27,9.32-2.08.53,1.31.44,6.86-.38,8.09-1.41,2.12-6.75,2.63-8.54.98ZM79.44,25.35c-1.16.19-5.51,1.37-3.55,3.09,1.75,1.53,4.41-.9,3.55-3.09Z"/>
  <path class="st0" d="M143.84,9.58c0,3.32-2.69,6.01-6.01,6.01s-6.01-2.69-6.01-6.01,2.69-6.01,6.01-6.01,6.01,2.69,6.01,6.01ZM137.85,6.07c-3.52,0-3.81,7.36.31,6.98,3.15-.29,3.15-6.98-.31-6.98Z"/>
  <path class="st0" d="M108.41,8.09h-2.88c-2.4-4.37-5.35-.82-4.46,3.17.57,2.54,4.35,2.46,4.25-.4l3.08.31c0,5.05-7.97,5.9-10.1,1.93-1.36-2.53-.93-7.33,1.87-8.77,2.97-1.53,8.74-.57,8.23,3.76Z"/>
  <path class="st0" d="M93.62,15.49l-2.58-.04-.46-.46c-.33-5.29-.59-11.28,6.29-11.43.79.14.34,2.69.45,3.31-1.13-.41-3.7.39-3.7,1.69v6.93Z"/>
  <path class="st0" d="M15.95,20.73c1.59-1.5,3.26-1.59,4.17.58,2.54-.84,3.83.19,2.91,2.8,4.5-1.23,4.29,5.05.53,3.95-1.04-.31-1.19-2-1.62-2.09-.35-.08-.81.47-1.21.49-1.08.07-1.94-.97-1.7-2.04-2.21.84-3.72,0-3.39-2.46-5.5,2.02-2.19-5.99.32-1.23Z"/>
</svg>